<?xml version="1.0" standalone="no"?>
<!DOCTYPE svg PUBLIC "-//W3C//DTD SVG 20010904//EN"
 "http://www.w3.org/TR/2001/REC-SVG-20010904/DTD/svg10.dtd">
<svg version="1.0" xmlns="http://www.w3.org/2000/svg"
 width="225.000000pt" height="225.000000pt" viewBox="0 0 225.000000 225.000000"
 preserveAspectRatio="xMidYMid meet">
<metadata>
Created by potrace 1.16, written by Peter Selinger 2001-2019
</metadata>
<g transform="translate(0.000000,225.000000) scale(0.100000,-0.100000)"
fill="#000000" stroke="none">
<path d="M980 2199 c-74 -27 -308 -111 -520 -186 -212 -75 -386 -136 -386
-137 -1 -1 2 -30 7 -66 4 -36 41 -346 80 -690 40 -344 72 -626 73 -626 1 -1
185 -104 411 -229 226 -125 424 -235 442 -245 l31 -18 444 245 c243 134 446
248 450 251 6 7 169 1288 172 1351 l1 35 -285 97 c-354 122 -762 261 -775 264
-5 2 -71 -19 -145 -46z m480 -934 c183 -390 334 -716 337 -723 4 -9 -16 -12
-78 -12 -160 0 -144 -12 -225 173 l-70 162 -290 3 -291 2 -63 -160 c-35 -89
-66 -163 -69 -164 -3 -2 -59 -7 -124 -10 -107 -7 -118 -6 -115 9 7 35 643
1443 649 1437 4 -4 156 -326 339 -717z"/>
<path d="M1118 1504 c-3 -5 -26 -58 -51 -119 -25 -60 -66 -158 -91 -217 l-45
-108 204 0 204 0 -66 138 c-36 75 -84 177 -107 226 -24 50 -45 86 -48 80z"/>
</g>
</svg>
