<?xml version="1.0" standalone="no"?>
<!DOCTYPE svg PUBLIC "-//W3C//DTD SVG 20010904//EN"
 "http://www.w3.org/TR/2001/REC-SVG-20010904/DTD/svg10.dtd">
<svg version="1.0" xmlns="http://www.w3.org/2000/svg"
 width="920.000000pt" height="920.000000pt" viewBox="0 0 920.000000 920.000000"
 preserveAspectRatio="xMidYMid meet">
<metadata>
Created by potrace 1.16, written by Peter Selinger 2001-2019
</metadata>
<g transform="translate(0.000000,920.000000) scale(0.100000,-0.100000)"
fill="#000000" stroke="none">
<path d="M4490 8402 c-49 -6 -90 -24 -84 -34 4 -6 2 -8 -4 -5 -15 10 -43 -3
-35 -16 3 -5 1 -7 -5 -4 -15 10 -43 -3 -35 -16 3 -5 1 -7 -5 -4 -15 10 -43 -3
-35 -16 3 -5 1 -7 -4 -4 -11 7 -66 -16 -93 -38 -8 -7 -51 -32 -95 -55 -117
-64 -136 -76 -127 -85 4 -5 2 -5 -4 -2 -15 8 -147 -67 -136 -77 4 -4 2 -6 -3
-5 -19 5 -55 -12 -49 -23 4 -6 2 -8 -4 -5 -5 4 -55 -19 -109 -51 -54 -32 -126
-73 -160 -92 -34 -19 -59 -38 -57 -42 3 -5 2 -7 -3 -6 -17 4 -53 -14 -47 -24
4 -7 2 -8 -4 -4 -15 9 -55 -18 -44 -29 4 -5 1 -5 -5 -1 -16 9 -74 -24 -66 -37
3 -6 1 -7 -4 -4 -14 9 -145 -67 -135 -77 4 -4 2 -6 -3 -4 -17 5 -75 -24 -68
-35 3 -5 2 -7 -4 -4 -13 8 -125 -57 -116 -68 4 -4 3 -5 -4 -1 -15 8 -76 -28
-65 -39 4 -5 1 -5 -5 -1 -16 9 -56 -17 -45 -29 4 -5 2 -5 -5 -1 -15 8 -174
-84 -166 -97 3 -6 1 -7 -5 -3 -14 8 -74 -28 -64 -39 4 -5 2 -5 -4 -2 -16 9
-145 -63 -137 -76 3 -6 1 -7 -4 -4 -6 4 -37 -9 -69 -28 -31 -19 -66 -37 -76
-41 -10 -3 -15 -10 -12 -16 4 -6 3 -9 -2 -5 -13 8 -86 -38 -76 -48 4 -4 1 -5
-5 -1 -16 9 -74 -24 -66 -37 3 -6 1 -7 -5 -4 -15 10 -43 -3 -35 -16 3 -5 2 -8
-3 -4 -11 6 -127 -57 -119 -65 3 -2 -1 -5 -8 -5 -23 0 -186 -97 -180 -107 4
-5 1 -6 -5 -2 -12 7 -105 -48 -96 -57 3 -3 -3 -4 -13 -3 -10 0 -17 -5 -15 -12
1 -8 -2 -11 -7 -8 -13 9 -73 -29 -63 -39 4 -5 2 -5 -5 -1 -16 9 -125 -63 -116
-77 3 -6 1 -7 -5 -3 -14 9 -84 -42 -76 -55 3 -5 0 -8 -8 -7 -7 2 -12 -3 -10
-10 1 -8 -2 -11 -7 -8 -19 12 -106 -145 -96 -172 2 -7 1 -11 -4 -8 -5 3 -12
-16 -17 -42 -7 -44 -6 -3268 2 -3472 3 -85 7 -102 40 -169 51 -103 140 -190
279 -273 61 -36 229 -135 375 -219 146 -84 393 -226 550 -317 392 -226 789
-455 1015 -585 105 -60 321 -185 482 -278 161 -93 332 -188 380 -211 l87 -42
136 0 c136 0 137 1 211 36 73 35 1290 728 1594 908 44 26 278 161 520 300 580
333 757 439 830 492 99 73 164 170 196 291 18 69 19 134 18 1812 l0 1741 -29
63 c-15 35 -33 67 -40 71 -6 4 -11 10 -10 14 2 10 -38 61 -80 104 -46 46 -108
84 -123 76 -7 -4 -9 -4 -5 1 10 11 -29 38 -42 30 -6 -4 -9 -1 -8 7 2 7 -3 12
-9 10 -7 -1 -13 3 -13 9 0 6 -7 8 -17 5 -10 -4 -14 -4 -10 0 6 7 -116 84 -134
84 -5 0 -9 5 -9 10 0 6 -6 10 -14 10 -7 0 -19 7 -26 15 -7 9 -19 14 -27 11 -8
-3 -11 -1 -8 4 3 6 2 10 -3 10 -5 0 -36 16 -67 35 -32 19 -62 32 -68 28 -6 -3
-7 -1 -4 4 7 11 -51 40 -68 35 -5 -2 -7 0 -3 4 11 10 -51 46 -65 38 -7 -4 -9
-3 -5 1 11 12 -119 88 -135 79 -6 -4 -9 -4 -5 1 11 12 -29 38 -45 29 -6 -4 -9
-4 -5 1 10 10 -101 77 -115 68 -6 -4 -7 -1 -2 7 6 10 4 12 -9 7 -9 -4 -14 -3
-11 2 6 10 -33 27 -50 22 -5 -1 -7 1 -2 5 7 8 -69 56 -91 57 -6 0 -10 2 -7 5
8 9 -166 103 -178 96 -7 -4 -9 -4 -5 1 11 11 -29 38 -44 29 -6 -4 -8 -3 -5 3
8 12 -107 75 -119 65 -4 -4 -4 -2 -1 4 3 6 -6 17 -21 25 -15 7 -39 22 -54 32
-15 10 -37 19 -47 20 -11 0 -18 4 -16 8 3 3 -8 12 -23 20 -14 8 -51 28 -81 46
-29 18 -59 30 -65 26 -6 -3 -8 -2 -3 2 10 11 -72 57 -86 48 -7 -3 -9 -3 -5 2
11 11 -99 78 -113 69 -7 -4 -9 -3 -6 3 8 13 -50 46 -65 37 -6 -4 -8 -3 -5 3 4
5 -6 16 -21 24 -15 7 -39 22 -54 32 -16 10 -33 15 -39 11 -7 -4 -9 -3 -5 4 6
10 -30 28 -47 24 -5 -1 -6 2 -2 8 3 5 2 10 -2 10 -5 0 -51 25 -102 55 -51 30
-98 52 -105 48 -6 -3 -8 -2 -3 2 10 11 -72 57 -86 48 -7 -3 -9 -3 -5 2 11 11
-29 38 -44 29 -6 -4 -8 -3 -5 3 8 13 -50 46 -65 37 -7 -5 -8 -3 -3 6 6 10 4
12 -9 7 -9 -4 -15 -3 -11 2 7 12 -54 43 -69 34 -6 -3 -8 -2 -3 2 8 9 -108 76
-198 113 -49 21 -78 25 -160 26 -55 1 -111 0 -125 -2z m330 -1617 c25 -3 70
-7 100 -10 30 -2 55 -5 55 -6 0 -1 16 -3 35 -4 19 -2 35 -4 35 -5 0 -2 15 -5
60 -14 33 -6 64 -13 95 -21 11 -3 29 -7 40 -10 11 -3 28 -7 38 -9 9 -2 31 -9
47 -16 17 -6 30 -11 30 -10 0 1 14 -4 30 -10 17 -7 37 -13 45 -15 8 -2 16 -4
18 -5 1 -2 5 -3 10 -5 4 -1 18 -6 32 -12 14 -6 42 -18 63 -26 20 -9 37 -13 37
-9 0 4 4 2 8 -4 4 -5 56 -36 116 -67 59 -32 128 -71 151 -87 23 -16 45 -26 49
-23 3 4 6 2 6 -4 0 -10 81 -69 88 -64 2 1 12 -8 22 -21 11 -13 19 -19 20 -14
0 4 9 -2 20 -15 10 -13 19 -21 20 -18 0 11 221 -204 286 -278 34 -39 65 -68
69 -65 4 4 6 3 4 -3 -4 -17 12 -45 22 -39 5 3 9 2 8 -3 -4 -15 13 -43 22 -37
5 3 9 2 8 -3 -4 -16 13 -43 24 -36 5 3 7 2 4 -4 -8 -13 27 -65 39 -56 5 5 6 4
2 -1 -8 -10 31 -88 41 -81 4 2 7 -11 6 -28 0 -29 -7 -36 -95 -88 -134 -79
-579 -337 -677 -393 -87 -49 -143 -67 -143 -47 0 7 -5 9 -10 6 -6 -4 -9 -2 -8
2 5 16 -55 102 -66 96 -6 -3 -8 -3 -4 2 9 10 -42 76 -53 69 -5 -3 -8 -2 -7 3
4 14 -34 63 -45 56 -5 -3 -7 -1 -3 5 7 11 -111 119 -126 114 -5 -1 -7 1 -4 6
2 4 -19 23 -47 42 -29 19 -54 38 -55 43 -2 4 -8 5 -13 1 -5 -3 -9 -1 -9 4 0 9
-50 37 -62 34 -5 -1 -8 3 -8 9 0 5 -4 7 -10 4 -5 -3 -10 -1 -10 5 0 6 -4 9 -9
5 -5 -3 -13 0 -16 6 -4 5 -14 8 -22 5 -8 -3 -12 -2 -9 3 5 8 -31 24 -59 26 -5
0 -16 4 -22 8 -7 5 -18 5 -25 1 -6 -4 -8 -3 -5 2 7 11 -51 29 -138 43 -92 15
-339 7 -413 -13 -89 -24 -206 -67 -213 -78 -3 -5 -9 -9 -13 -9 -16 2 -94 -44
-89 -52 3 -6 1 -7 -5 -3 -9 6 -82 -30 -82 -41 0 -2 6 -1 13 3 7 4 9 3 4 -2 -5
-5 -12 -9 -15 -9 -18 -1 -61 -39 -55 -49 3 -6 3 -8 -2 -4 -11 10 -96 -62 -88
-75 3 -5 1 -7 -4 -4 -11 7 -28 -20 -24 -38 2 -5 -1 -7 -5 -2 -9 9 -46 -22 -39
-34 3 -4 0 -11 -6 -15 -8 -4 -9 -3 -5 4 4 7 5 12 2 12 -7 0 -126 -180 -126
-190 0 -6 -14 -38 -30 -72 -39 -80 -73 -194 -67 -224 2 -13 1 -21 -3 -19 -13
8 -19 -218 -10 -335 9 -115 30 -216 42 -204 4 3 4 -4 1 -17 -5 -17 -3 -20 7
-14 8 5 11 4 7 -3 -10 -15 33 -123 46 -115 5 3 7 1 4 -5 -10 -15 3 -43 16 -35
6 3 7 1 3 -6 -10 -15 85 -157 159 -238 167 -184 408 -314 658 -353 111 -18
349 -8 452 19 203 52 374 151 541 313 l81 79 437 -262 c240 -145 436 -268 436
-274 0 -6 -32 -52 -71 -101 -373 -469 -908 -763 -1500 -825 -177 -19 -464 -7
-624 26 -345 70 -706 239 -971 455 -159 131 -346 336 -443 488 -18 28 -37 52
-43 52 -5 0 -7 4 -4 8 3 5 -4 21 -15 38 -11 16 -27 44 -35 61 -9 18 -20 30
-25 27 -5 -3 -6 2 -3 10 3 9 1 16 -6 16 -6 0 -9 4 -5 9 3 5 0 15 -7 23 -7 7
-14 20 -16 28 -2 8 -7 17 -10 20 -4 3 -7 11 -8 18 -2 29 -5 33 -16 26 -6 -4
-8 -3 -5 3 4 6 1 26 -7 44 -7 19 -17 43 -21 54 -4 11 -10 28 -12 38 -2 10 -8
28 -15 40 -7 12 -13 27 -15 32 -7 27 -10 43 -17 77 -5 21 -11 36 -15 34 -3 -2
-7 6 -7 17 -3 45 -9 77 -14 77 -3 0 -7 10 -7 23 -2 21 -5 45 -19 152 -3 28 -8
54 -11 58 -3 5 -6 38 -8 75 -1 37 -4 104 -6 149 -2 44 0 79 4 76 5 -3 7 29 5
70 -2 41 0 73 4 71 5 -3 7 5 7 18 0 13 3 46 8 74 5 28 8 59 7 68 -1 9 1 16 5
16 4 0 7 10 8 23 1 12 4 33 8 47 4 14 8 36 10 50 1 14 5 32 9 40 28 68 65 193
60 202 -4 7 -2 8 4 4 11 -6 13 -3 12 19 0 3 7 19 15 35 9 17 13 36 9 43 -4 7
-4 9 1 5 4 -4 22 26 40 66 17 40 44 93 59 117 15 24 45 72 66 106 21 34 35 65
32 69 -4 4 -2 4 5 0 7 -3 14 2 18 14 3 11 11 20 16 20 6 0 8 4 5 9 -4 5 -3 11
2 13 6 3 22 22 87 106 5 7 29 33 53 58 23 24 40 44 37 44 -7 0 73 77 145 140
29 25 65 57 81 72 16 15 29 25 29 22 0 -3 6 1 14 8 37 35 65 56 70 51 3 -4 6
-1 6 5 0 7 7 12 15 12 8 0 15 3 15 8 0 4 21 20 48 37 26 16 50 33 53 38 3 5
10 9 15 9 17 1 54 21 54 30 0 4 3 7 8 6 4 -1 23 6 42 17 19 11 37 19 40 20 3
0 30 12 60 27 68 32 93 42 103 40 4 -1 7 2 7 8 0 6 3 9 8 9 4 -1 9 0 12 1 3 1
12 3 20 5 8 2 49 16 90 30 41 14 84 27 95 30 11 2 20 4 20 5 0 3 71 19 110 25
17 2 41 7 55 10 14 3 36 8 50 11 14 3 63 8 110 11 46 3 92 8 102 12 20 7 183
5 248 -4z m1693 -1764 c4 0 7 -41 7 -91 0 -86 1 -90 23 -91 84 -4 207 -3 232
1 l30 6 1 82 c1 45 4 85 8 89 11 11 199 11 220 0 17 -8 18 -18 13 -93 l-5 -84
27 -1 c14 0 45 0 69 1 23 1 56 -1 72 -5 l30 -7 0 -113 c0 -94 -3 -114 -16
-119 -9 -3 -51 -6 -95 -6 l-79 0 0 -140 0 -140 79 0 c44 0 86 -3 95 -6 13 -5
16 -25 16 -119 0 -70 -4 -116 -11 -120 -6 -4 -48 -7 -94 -7 l-84 0 -3 -86 -3
-87 -117 -3 c-90 -2 -118 0 -119 10 -1 7 -2 47 -3 88 l-1 75 -140 0 -140 0 -3
-87 -3 -88 -119 0 -120 0 0 85 c0 47 -3 86 -7 86 -5 1 -42 3 -84 4 -42 1 -81
5 -87 9 -8 5 -12 46 -12 121 0 131 -5 125 106 125 89 0 86 -5 82 160 l-3 115
-85 3 c-47 2 -89 7 -94 12 -9 9 -9 220 0 230 3 3 36 6 72 7 107 2 112 3 111
11 -1 4 -1 44 0 89 1 69 4 82 19 85 15 3 195 2 215 -1z"/>
<path d="M6520 4450 l0 -141 143 3 142 3 0 135 0 135 -142 3 -143 3 0 -141z"/>
</g>
</svg>
