<?xml version="1.0" standalone="no"?>
<!DOCTYPE svg PUBLIC "-//W3C//DTD SVG 20010904//EN"
 "http://www.w3.org/TR/2001/REC-SVG-20010904/DTD/svg10.dtd">
<svg version="1.0" xmlns="http://www.w3.org/2000/svg"
 width="900.000000pt" height="526.000000pt" viewBox="0 0 900.000000 526.000000"
 preserveAspectRatio="xMidYMid meet">
<metadata>
Created by potrace 1.16, written by Peter Selinger 2001-2019
</metadata>
<g transform="translate(0.000000,526.000000) scale(0.100000,-0.100000)"
fill="#000000" stroke="none">
<path d="M3120 4083 c0 -4 615 -623 1367 -1375 l1368 -1368 377 0 378 0 0 860
0 860 -475 474 c-513 513 -523 522 -654 546 -63 12 -2361 14 -2361 3z"/>
<path d="M2976 3824 c-66 -137 -218 -454 -338 -704 -246 -511 -267 -566 -250
-673 6 -39 26 -101 47 -145 35 -73 53 -94 387 -427 193 -192 344 -339 336
-324 -9 14 -24 47 -34 75 -18 46 -19 111 -24 1248 l-5 1199 -119 -249z"/>
</g>
</svg>
