<?xml version="1.0" standalone="no"?>
<!DOCTYPE svg PUBLIC "-//W3C//DTD SVG 20010904//EN"
 "http://www.w3.org/TR/2001/REC-SVG-20010904/DTD/svg10.dtd">
<svg version="1.0" xmlns="http://www.w3.org/2000/svg"
 width="300.000000pt" height="300.000000pt" viewBox="0 0 300.000000 300.000000"
 preserveAspectRatio="xMidYMid meet">
<metadata>
Created by potrace 1.16, written by Peter Selinger 2001-2019
</metadata>
<g transform="translate(0.000000,300.000000) scale(0.100000,-0.100000)"
fill="#000000" stroke="none">
<path d="M1030 2550 c-177 -12 -307 -66 -410 -170 -76 -75 -120 -156 -151
-275 -19 -71 -21 -119 -26 -440 -6 -362 2 -635 17 -635 5 0 7 30 6 68 -2 37
-2 59 1 49 2 -9 9 -15 14 -12 5 4 9 0 9 -8 0 -8 7 -20 15 -27 13 -11 18 -10
29 6 8 10 12 22 10 26 -3 5 0 8 5 8 6 0 12 -6 12 -12 1 -7 5 3 9 22 l7 35 2
-32 c0 -18 6 -33 11 -33 6 0 11 15 11 33 1 26 3 23 9 -16 5 -27 11 -51 13 -54
3 -2 7 206 10 464 4 435 5 473 24 536 25 82 62 137 132 194 102 85 207 96 796
90 450 -5 491 -8 579 -54 44 -23 125 -103 146 -143 50 -98 53 -129 57 -592 6
-617 -7 -711 -115 -821 -75 -77 -131 -101 -282 -122 -67 -9 -83 -13 -55 -15
22 -1 46 -1 54 0 8 1 18 -4 22 -12 7 -10 9 -10 9 0 0 6 10 12 23 11 21 0 21
-1 2 -8 -19 -8 -18 -10 12 -36 30 -27 31 -29 16 -52 -14 -22 -14 -23 6 -23 15
0 20 4 15 13 -6 10 -4 10 7 0 7 -7 22 -14 34 -14 11 -1 -2 -7 -30 -14 -40 -10
-44 -13 -21 -14 17 -1 66 10 110 24 146 45 270 162 327 310 51 131 54 170 54
710 0 493 -1 501 -24 590 -28 106 -48 150 -108 227 -100 130 -252 201 -465
218 -137 11 -780 11 -928 0z"/>
<path d="M2010 2177 c-31 -16 -70 -73 -70 -104 0 -67 61 -133 123 -133 93 0
157 110 111 190 -33 54 -107 76 -164 47z"/>
<path d="M1350 2021 c-95 -31 -163 -72 -231 -140 -166 -166 -207 -408 -105
-615 26 -52 107 -159 115 -151 2 3 -2 11 -9 20 -21 26 -6 25 19 -1 13 -13 18
-24 11 -24 -20 0 5 -25 59 -59 50 -33 78 -42 45 -15 -19 15 -19 15 3 11 15 -3
20 -1 16 9 -3 8 -11 14 -18 14 -7 0 -15 4 -17 10 -2 6 -8 6 -18 0 -13 -8 -12
-10 3 -10 9 0 17 -4 17 -10 0 -14 -12 -12 -39 6 -16 12 -19 19 -11 24 9 5 5
14 -11 29 -12 11 -18 21 -12 21 6 0 16 -7 23 -15 7 -9 15 -13 18 -11 3 3 18
-6 34 -19 30 -25 65 -34 52 -14 -5 8 -1 8 14 0 11 -6 29 -11 39 -11 11 0 28
-7 39 -16 10 -8 14 -13 9 -10 -6 2 -17 1 -25 -5 -12 -7 -9 -9 10 -10 14 -1 30
-2 35 -4 6 -1 17 -3 25 -4 13 -1 13 -2 0 -11 -8 -5 -10 -10 -5 -11 42 -3 79
-10 93 -18 18 -10 -14 -8 -142 10 -38 5 -71 8 -73 5 -13 -12 131 -33 212 -31
392 12 634 428 457 785 -58 119 -211 240 -347 276 -72 20 -218 17 -285 -5z
m308 -208 c125 -60 192 -169 193 -314 1 -192 -126 -329 -328 -354 -40 -5 -71
-1 -129 16 -98 29 -166 88 -213 184 -29 59 -33 77 -33 149 -1 73 3 92 32 154
37 80 82 128 158 167 100 52 210 51 320 -2z"/>
</g>
</svg>
