<?xml version="1.0" standalone="no"?>
<!DOCTYPE svg PUBLIC "-//W3C//DTD SVG 20010904//EN"
 "http://www.w3.org/TR/2001/REC-SVG-20010904/DTD/svg10.dtd">
<svg version="1.0" xmlns="http://www.w3.org/2000/svg"
 width="900.000000pt" height="780.000000pt" viewBox="0 0 900.000000 780.000000"
 preserveAspectRatio="xMidYMid meet">
<metadata>
Created by potrace 1.16, written by Peter Selinger 2001-2019
</metadata>
<g transform="translate(0.000000,780.000000) scale(0.100000,-0.100000)"
fill="#000000" stroke="none">
<path d="M2845 5968 c0 -135 -2 -148 -31 -230 -40 -110 -107 -219 -187 -300
-34 -35 -150 -135 -257 -223 -260 -212 -452 -404 -505 -505 -37 -69 -40 -81
-40 -156 0 -74 3 -87 39 -156 63 -123 215 -315 421 -533 87 -91 86 -90 -13 60
-90 135 -197 348 -218 434 -23 94 -15 164 29 253 55 112 145 215 418 480 137
134 268 269 290 300 86 123 129 259 129 406 0 122 -26 252 -58 292 -16 20 -17
15 -17 -122z"/>
<path d="M3195 5196 c-217 -78 -328 -132 -471 -227 -146 -98 -255 -221 -295
-336 -38 -107 -25 -264 31 -373 10 -19 54 -85 98 -147 149 -211 154 -264 40
-435 -21 -32 -36 -58 -32 -58 17 0 148 107 202 164 83 90 107 142 107 236 -1
88 -28 155 -119 295 -92 141 -110 182 -110 250 0 50 6 71 34 125 66 123 260
295 525 464 65 42 121 78 123 81 11 11 -18 2 -133 -39z"/>
<path d="M4677 4503 c-4 -3 -7 -329 -7 -724 0 -698 -1 -719 -21 -785 -35 -116
-95 -195 -179 -239 l-31 -16 44 -52 c67 -78 66 -78 152 -34 90 46 156 115 202
208 69 143 66 107 70 908 3 586 2 726 -9 732 -15 10 -212 12 -221 2z"/>
<path d="M5510 4133 c-93 -8 -192 -27 -265 -50 -122 -38 -115 -31 -95 -105 11
-41 22 -62 31 -61 8 1 58 13 113 27 72 19 124 26 193 26 107 0 147 -13 186
-59 34 -40 47 -89 47 -173 l0 -68 -57 0 c-163 -1 -334 -35 -413 -83 -116 -71
-170 -162 -170 -286 0 -138 45 -222 145 -272 55 -27 79 -33 159 -37 114 -6
193 17 293 84 37 24 68 42 70 40 2 -2 9 -26 16 -52 l12 -49 83 -3 83 -3 -3
443 c-3 441 -3 443 -27 495 -27 62 -94 126 -156 153 -35 15 -208 47 -210 38 0
0 -16 -3 -35 -5z m210 -737 l0 -134 -71 -46 c-145 -92 -276 -81 -328 28 -24
49 -27 112 -7 160 36 87 127 122 319 125 l87 1 0 -134z"/>
<path d="M7410 4110 c-92 -20 -196 -56 -205 -71 -4 -5 2 -36 11 -69 13 -49 20
-60 33 -55 9 4 58 18 110 31 129 33 268 34 331 2 63 -32 91 -90 93 -194 l2
-79 -145 -11 c-151 -11 -232 -30 -310 -69 -157 -81 -222 -235 -171 -404 40
-133 123 -191 284 -199 119 -6 196 15 294 81 41 27 76 48 77 46 2 -2 7 -26 12
-54 l9 -50 83 0 83 0 -1 430 c0 237 -5 446 -10 465 -25 94 -109 174 -214 205
-70 21 -259 18 -366 -5z m378 -712 l3 -127 -43 -32 c-94 -69 -188 -98 -258
-79 -88 24 -139 109 -121 205 22 117 118 165 326 162 l90 -2 3 -127z"/>
<path d="M6082 4098 c3 -7 81 -255 173 -550 l168 -538 139 0 139 0 38 83 c102
222 197 538 297 995 l5 23 -118 -3 -118 -3 -7 -65 c-21 -190 -187 -795 -214
-780 -5 3 -18 43 -31 90 -23 90 -127 435 -190 635 l-39 120 -123 3 c-97 2
-122 0 -119 -10z"/>
<path d="M3590 3784 c-50 -9 -115 -28 -132 -39 -13 -8 -3 -10 46 -7 140 9 246
-39 292 -134 84 -171 -48 -388 -360 -595 -49 -32 -87 -59 -84 -59 20 0 195 68
262 102 345 173 468 424 299 614 -70 80 -221 135 -323 118z"/>
<path d="M1670 3720 c-253 -45 -530 -157 -530 -215 0 -51 181 -90 539 -115
379 -27 778 -6 1276 66 167 24 170 25 247 71 42 26 76 49 74 50 -1 1 -43 -4
-92 -12 -381 -61 -902 -100 -1219 -91 -344 9 -474 26 -512 69 -17 19 -17 20
25 57 43 39 148 84 282 120 84 24 43 23 -90 0z"/>
<path d="M1633 3221 c-57 -19 -117 -61 -133 -92 -6 -11 -10 -37 -8 -57 3 -34
8 -39 58 -64 126 -63 351 -91 740 -92 343 -1 438 11 753 96 l79 21 -53 29
c-30 16 -64 38 -76 50 l-23 22 -163 -22 c-275 -37 -402 -46 -682 -46 -291 -1
-379 9 -438 48 -39 27 -45 60 -18 97 12 16 20 29 19 29 -2 -1 -26 -9 -55 -19z"/>
<path d="M1703 2735 c-28 -14 -59 -35 -69 -46 -22 -24 -24 -80 -4 -104 50 -60
207 -113 400 -134 332 -37 594 -14 917 81 l111 33 -117 61 c-97 50 -121 59
-146 53 -101 -26 -265 -40 -505 -46 -284 -6 -416 3 -479 34 -32 16 -36 22 -36
56 0 20 -5 37 -11 37 -5 0 -33 -11 -61 -25z"/>
<path d="M1262 2434 c-199 -29 -363 -87 -434 -154 -62 -60 -48 -108 42 -147
201 -85 890 -137 1515 -114 680 26 1004 77 1250 195 147 70 186 124 129 177
l-26 24 13 -28 c36 -78 -104 -142 -421 -192 -234 -37 -873 -75 -1260 -75 -356
0 -832 54 -955 109 -137 61 -40 144 233 201 107 22 55 25 -86 4z"/>
<path d="M3945 2159 c-55 -42 -223 -123 -320 -153 -107 -34 -266 -71 -395 -91
-400 -63 -1074 -71 -1632 -20 -88 9 -163 14 -165 12 -6 -7 235 -58 364 -77
531 -77 1378 -32 1801 96 167 51 337 157 378 235 8 16 13 29 12 29 -2 0 -21
-14 -43 -31z"/>
</g>
</svg>
