<?xml version="1.0" standalone="no"?>
<!DOCTYPE svg PUBLIC "-//W3C//DTD SVG 20010904//EN"
 "http://www.w3.org/TR/2001/REC-SVG-20010904/DTD/svg10.dtd">
<svg version="1.0" xmlns="http://www.w3.org/2000/svg"
 width="225.000000pt" height="225.000000pt" viewBox="0 0 225.000000 225.000000"
 preserveAspectRatio="xMidYMid meet">
<metadata>
Created by potrace 1.16, written by Peter Selinger 2001-2019
</metadata>
<g transform="translate(0.000000,225.000000) scale(0.100000,-0.100000)"
fill="#000000" stroke="none">
<path d="M30 1125 l0 -1095 1095 0 1095 0 0 1095 0 1095 -1095 0 -1095 0 0
-1095z m1820 73 c41 -17 140 -109 140 -128 0 -5 -35 -32 -77 -60 l-77 -52 -21
24 c-53 61 -128 77 -179 37 -39 -31 -37 -91 5 -130 17 -16 35 -29 40 -29 5 0
61 -25 125 -56 187 -92 244 -165 244 -313 0 -115 -60 -204 -169 -255 -39 -18
-65 -21 -172 -21 l-126 0 -79 40 c-58 30 -89 53 -122 93 -23 30 -41 59 -39 65
2 7 38 31 80 55 l77 43 49 -50 c49 -51 95 -71 159 -71 72 0 132 46 132 101 0
47 -37 78 -175 143 -147 70 -202 113 -239 189 -29 57 -35 150 -14 219 15 50
79 123 131 149 81 42 220 45 307 7z m-570 -73 l0 -95 -140 0 -140 0 0 -405 0
-405 -105 0 -105 0 0 405 0 405 -145 0 -145 0 0 64 c0 35 3 78 6 95 l7 31 383
0 384 0 0 -95z"/>
</g>
</svg>
